<svg xmlns="http://www.w3.org/2000/svg" viewBox="0 43 129 39">
    <!-- body -->
    <path
        fill="#409643"
        d="M 83.523 55.13 Q 73 47 63.18 45.286 s -21.657 -3.117 -45.61 8.368 L 2.477 55.622 l 0.82 9.023 L 1 69.4 l 3.445 5.91 h 8.367 S 10.68 61.529 25.937 61.529 c 0 0 11.977 0.82 10.008 16.078 h 53.139 s 0.673 -11.43 10.861 -14.421 a 11.17 11.17 0 0 1 9.641 1.378 c 2.726 1.941 5.351 5.715 4.946 13.043 H 127 V 66.122 S 121.75 55.13 83.523 55.13 z">
        <animate attributeName="fill" keyTimes="0;0.5;1" values="#409643;#334294;#409643" dur="6s"
            repeatCount="indefinite" />
    </path>
    <path
        fill="#4caf50"
        d="M 116.554 75.62 c -0.144 -7.389 -3.171 -11.244 -5.817 -13.206 a 12.124 12.124 0 0 0 -7.29 -2.351 a 15.83 15.83 0 0 0 -4.063 0.616 A 16.053 16.053 0 0 0 87.027 75.62 H 38.119 c 0.237 -4.883 -0.826 -8.855 -3.168 -11.831 a 13.375 13.375 0 0 0 -8.878 -4.916 l -0.136 -0.005 c -5.344 0 -9.392 1.628 -12.034 4.839 a 15.476 15.476 0 0 0 -3.176 9.519 H 5.586 l -2.338 -4.175 l 2.077 -4.481 l -0.7 -7.99 l 13.515 -1.836 l 0.287 -0.144 a 85.72 85.72 0 0 1 37.551 -8.916 a 56.781 56.781 0 0 1 6.627 0.343 q 10.395 1.973 20.46 10.315 h 0.455 c 32.214 0 40.169 8.257 41.49 10.005 c 0.99 3.653 0.99 7.653 0 9.273 z">
        <animate attributeName="fill" keyTimes="0;0.5;1" values="#4caf50;#3F51B5;#4caf50" dur="6s"
            repeatCount="indefinite" />
    </path>
    <!-- body outline -->
    <path
        d="M 127 78.606 h -12.469 a 1 1 0 0 1 -1 -1.055 c 0.316 -5.713 -1.207 -9.809 -4.527 -12.173 c -2.383 -1.7 -6.6 -2.266 -9.8 -1.326 c -9.339 2.741 -9.124 13.417 -9.121 13.524 a 1 1 0 0 1 -1 1.03 H 35.945 a 1 1 0 0 1 -0.992 -1.128 c 0.627 -4.861 -0.145 -8.662 -2.293 -11.3 a 10.664 10.664 0 0 0 -6.794 -3.655 c -4.354 0 -7.636 1.21 -9.685 3.592 c -3.15 3.662 -2.388 8.986 -2.38 9.04 a 1 1 0 0 1 -0.988 1.151 H 4.445 a 1 1 0 0 1 -0.864 -0.5 L 0.136 69.908 a 1 1 0 0 1 -0.036 -0.939 l 2.176 -4.509 l -0.8 -8.748 a 1 1 0 0 1 0.867 -1.082 l 14.936 -1.948 c 23.895 -11.4 45.82 -8.417 46.04 -8.386 q 10.217 1.917 20.434 9.834 c 38.207 0.044 43.924 11.09 44.149 11.561 C 128.9 69.569 129 76 127 78.606 z m -11.432 -2 H 126 C 127 75 127 70 126 66.4 c -0.878 -1.3 -8.189 -10.267 -42.477 -10.267 a 1 1 0 0 1 -0.436 -0.1 q -10.0435 -8.0165 -20.087 -10.033 A 87.131 87.131 0 0 0 18 54.556 a 0.993 0.993 0 0 1 -0.3 0.09 L 3.56 56.49 l 0.733 8.065 a 1 1 0 0 1 -0.1 0.525 l -2.061 4.279 L 5.02 74.31 h 6.7 a 13.853 13.853 0 0 1 2.93 -9.48 c 2.446 -2.854 6.243 -4.3 11.285 -4.3 a 12.508 12.508 0 0 1 8.251 4.362 c 2.349 2.863 3.313 6.8 2.873 11.715 h 51.059 c 0.206 -3.029 1.578 -11.848 10.522 -14.473 c 3.8 -1.115 8.645 -0.436 11.525 1.616 c 2.572 1.83 5.53 5.534 5.403 12.856 z "
        fill="#2f3a5a" />
    <!-- window -->
    <path d="M 30.226 54.012 c 18.73 4.53 18.474 4.495 49.174 3.888 q -7.5875 -6.1295 -15.175 -8.259 s -15.425 -3.157 -33.999 4.371 z"
        fill="#b9ddfc" />
    <path
        d="M 79.4 57.9 c -2.672 0.05 -5.116 0.1 -7.351 0.139 q -5.4535 -4.965 -10.907 -5.93 s -12.542 -2.576 -28.637 2.451 c -0.725 -0.169 -1.48 -0.357 -2.275 -0.546 c 18.576 -7.53 33.993 -4.371 33.993 -4.371 z"
        fill="#cee7fd" />
    <path
        d="M 59.143 59.188 c -12.771 0 -16.395 -0.876 -29.962 -4.158 l -3.211 -0.776 l 2.882 -1.168 c 18.644 -7.556 33.933 -4.556 34.576 -4.424 q 9.386 2.0805 18.772 10.161 l -4.508 0.089 c -8.018 0.159 -13.892 0.276 -18.549 0.276 z M 32.614 53.8 c 14.822 3.562 16.865 3.665 44 3.171 q -6.8635 -5.1855 -13.727 -6.371 a 63.809 63.809 0 0 0 -30.273 3.2 z"
        fill="#2f3a5a" />
    <!-- left wheel -->
    <circle cx="24.369" cy="71.688" r="8.712" fill="#84879c" />
    <path
        d="M24.369 81.4a9.712 9.712 0 119.712-9.712 9.723 9.723 0 01-9.712 9.712zm0-17.424a7.712 7.712 0 107.712 7.712 7.721 7.721 0 00-7.712-7.713z"
        fill="#2f3a5a" />
    <circle cx="24.369" cy="71.688" r="2.71" fill="#cee7fd" />
    <path
        d="M24.369 75.4a3.71 3.71 0 113.71-3.71 3.714 3.714 0 01-3.71 3.71zm0-5.42a1.71 1.71 0 101.71 1.71 1.712 1.712 0 00-1.71-1.712z"
        fill="#2f3a5a" />
    <!-- right wheel -->
    <circle cx="102.268" cy="71.688" r="8.712" fill="#84879c" />
    <path
        d="M102.268 81.4a9.712 9.712 0 119.712-9.712 9.723 9.723 0 01-9.712 9.712zm0-17.424a7.712 7.712 0 107.712 7.712 7.721 7.721 0 00-7.712-7.713z"
        fill="#2f3a5a" />
    <circle cx="102.268" cy="71.688" r="2.71" fill="#cee7fd" />
    <path
        d="M102.268 75.4a3.71 3.71 0 113.71-3.71 3.714 3.714 0 01-3.71 3.71zm0-5.42a1.71 1.71 0 101.71 1.71 1.712 1.712 0 00-1.71-1.712z"
        fill="#2f3a5a" />
    <!-- headlights -->
    <path
        fill="#ffc943"
        d="M118.378 60.1s-1.74 5.622 1.039 7.13S127 71.125 127 71.125v-5a29.268 29.268 0 00-8.622-6.025z">
        <animate attributeName="fill" keyTimes="0;0.5;1" values="#ffc943;#ffffff;#ffc943" dur="0.6s"
            repeatCount="indefinite" />
    </path>
    <path
        d="M 127 72.125 a 1 1 0 0 1 -0.444 -0.1 c -0.048 -0.024 -4.852 -2.408 -7.615 -3.909 c -3.4 -1.847 -1.721 -7.649 -1.518 -8.305 a 1 1 0 0 1 1.4 -0.6 a 30.059 30.059 0 0 1 8.935 6.258 a 1 1 0 0 1 0.248 0.659 v 5 a 1 1 0 0 1 -1 1 z m -7.948 -10.555 c -0.31 1.646 -0.454 4.081 0.842 4.785 c 1.794 0.974 4.468 2.33 6.105 3.153 q 1.001 -0.508 0 -2.986 a 29.379 29.379 0 0 0 -6.947 -4.952 z"
        fill="#2f3a5a" />
</svg>