<svg version="1.0" xmlns="http://www.w3.org/2000/svg"
 width="708.000000pt" height="208.000000pt" viewBox="0 0 708.000000 208.000000"
 preserveAspectRatio="xMidYMid meet">

<g id="product-shape" transform="translate(0.000000,208.000000) scale(0.100000,-0.100000)"
fill="#000000" stroke="none">
<path d="M3280 2070 c-116 -11 -318 -46 -414 -72 l-79 -21 22 -19 c13 -10 29
-18 37 -18 34 0 6 -19 -104 -70 -161 -75 -456 -253 -623 -374 l-63 -46 -149 0
c-81 0 -146 3 -143 8 11 18 -217 2 -399 -29 -634 -107 -1004 -226 -1178 -379
-20 -18 -37 -36 -37 -42 0 -5 -13 -40 -29 -76 -33 -76 -37 -101 -51 -305 -7
-103 -15 -155 -26 -172 -14 -22 -14 -24 3 -33 10 -6 57 -18 103 -26 74 -14 90
-21 125 -55 37 -36 46 -39 130 -49 50 -6 160 -16 245 -22 85 -6 165 -13 177
-16 l23 -4 0 166 c0 166 1 177 47 334 17 61 81 181 116 220 33 37 128 110 142
110 7 0 18 6 24 14 7 8 26 18 42 21 16 4 44 14 62 23 25 14 60 17 172 17 81
-1 158 -6 184 -13 44 -13 132 -58 185 -95 84 -59 202 -232 220 -322 9 -41 36
-302 43 -402 l6 -83 1246 0 c685 0 1411 3 1612 7 l366 6 6 166 c3 91 10 182
16 201 5 19 17 64 27 100 31 121 100 236 193 322 57 53 155 109 216 124 17 4
36 11 43 17 20 16 195 21 280 8 157 -25 326 -137 406 -272 20 -33 36 -64 36
-67 0 -4 8 -23 19 -42 41 -77 55 -166 56 -342 0 -91 3 -169 6 -172 7 -8 152
29 204 51 43 19 98 53 103 66 2 4 8 7 14 7 12 0 68 60 68 73 0 5 -13 6 -30 2
-16 -4 -30 -3 -30 2 0 5 15 33 33 63 23 40 41 58 65 66 18 5 29 14 25 18 -9 8
-9 12 -11 138 l-2 96 -32 21 c-31 19 -33 19 -40 2 -8 -24 -35 -33 -57 -21 -10
5 -27 39 -39 77 -32 100 -82 209 -131 283 l-42 65 68 16 c38 8 73 18 79 21 16
10 4 94 -17 117 -17 18 -31 21 -112 21 -73 0 -131 9 -287 45 -107 25 -222 54
-255 65 -81 27 -440 119 -660 170 -99 23 -254 59 -345 80 -91 21 -262 56 -380
77 -118 21 -205 39 -192 41 18 3 33 22 17 22 -3 0 -38 7 -78 15 -85 17 -246
41 -412 61 -139 17 -733 27 -865 14z m469 -135 c140 -4 485 -44 531 -61 8 -3
48 -9 90 -14 70 -9 140 -25 445 -100 277 -68 251 -58 334 -137 53 -51 72 -76
65 -83 -13 -13 -522 -30 -942 -30 -173 0 -434 -4 -580 -10 -147 -5 -429 -14
-626 -20 -217 -6 -364 -14 -370 -20 -5 -5 -25 -10 -43 -10 -28 0 -33 -4 -33
-24 0 -13 7 -29 15 -36 31 -26 17 -40 -39 -40 -58 0 -106 27 -106 59 0 37 -31
50 -130 53 l-94 3 165 106 c306 198 449 270 644 322 158 43 255 55 400 51 61
-2 184 -6 274 -9z m1121 -691 c183 -6 291 -21 305 -44 2 -4 -1 -23 -8 -41 -17
-47 -136 -277 -151 -292 -7 -6 -27 -39 -45 -72 -62 -110 -133 -169 -231 -193
-83 -20 -566 -70 -576 -59 -3 2 44 166 103 362 l108 358 150 -7 c82 -3 238 -9
345 -12z m-4200 -163 c0 -10 -7 -22 -16 -25 -8 -3 -24 -28 -36 -56 -11 -27
-26 -50 -32 -50 -6 0 -17 -19 -23 -42 -6 -24 -21 -75 -32 -114 -12 -38 -27
-122 -34 -185 l-13 -114 -129 0 -130 0 1 98 c1 54 10 138 19 186 l18 89 -21
27 c-22 28 -29 88 -14 113 5 7 80 28 168 47 251 53 274 55 274 26z"/>
</g>

<g id="product-windows" transform="translate(0.000000,208.000000) scale(0.100000,-0.100000)"
fill="#000000" stroke="none">
<path d="M2775 1988 c3 -9 -32 -28 -113 -62 -132 -56 -529 -254 -699 -348 -61
-35 -138 -77 -170 -95 l-58 -32 165 -1 c161 0 166 1 203 26 134 90 492 307
622 376 85 45 155 87 155 92 0 6 -21 20 -47 31 -26 11 -51 22 -55 23 -4 2 -6
-2 -3 -10z"/>
<path d="M3365 1950 c-228 -18 -420 -73 -620 -178 -164 -86 -215 -118 -215
-137 0 -19 -1 -19 51 4 51 23 64 18 102 -36 20 -28 27 -52 27 -84 l0 -46 133
4 c1367 34 1307 32 1308 57 1 17 2 18 6 4 4 -15 16 -18 86 -17 45 1 106 4 136
7 l55 7 12 45 c6 25 23 85 38 134 14 49 25 90 23 92 -1 1 -63 19 -137 38 -102
27 -136 33 -142 23 -6 -9 -8 -9 -8 0 0 45 -595 103 -855 83z"/>
</g>
</svg>