<svg version="1.0" xmlns="http://www.w3.org/2000/svg"
 width="900.000000pt" height="305.000000pt" viewBox="0 0 900.000000 305.000000"
 preserveAspectRatio="xMidYMid meet">

<g id="product-shape" transform="translate(0.000000,305.000000) scale(0.100000,-0.100000)"
fill="#000000" stroke="none">
<path d="M5145 2640 c-117 -8 -336 -38 -345 -47 -3 -3 12 -19 33 -36 20 -18
37 -35 37 -39 0 -3 -37 -20 -82 -36 -181 -66 -522 -244 -778 -407 -203 -129
-174 -119 -324 -111 -184 10 -405 33 -445 47 -33 12 -91 9 -611 -31 -69 -5
-213 -9 -320 -9 -293 2 -536 -41 -865 -153 -508 -172 -645 -245 -868 -461 -68
-65 -68 -66 -52 -91 22 -32 64 -46 144 -46 59 0 72 -4 121 -36 61 -41 110 -83
110 -96 0 -5 -31 -53 -70 -106 -64 -91 -130 -157 -130 -132 0 6 -18 19 -40 29
l-40 18 -61 -57 c-68 -63 -73 -85 -24 -110 34 -17 277 -19 682 -5 l231 8 -5
171 -6 172 32 104 c50 160 90 228 189 320 97 91 131 112 257 159 81 30 103 34
225 38 127 5 142 4 225 -22 134 -41 181 -68 276 -164 98 -99 157 -200 190
-328 25 -98 27 -272 5 -353 -26 -91 -48 -84 237 -77 138 4 403 13 587 22 184
8 497 20 695 25 198 6 443 15 545 21 442 24 744 13 1118 -42 73 -10 148 -19
166 -19 l33 0 -8 47 c-5 27 -10 102 -10 168 -2 228 68 403 225 559 64 63 98
87 170 122 125 61 211 78 356 70 181 -9 296 -58 430 -184 133 -125 211 -286
243 -502 l13 -95 37 1 c45 2 200 60 221 83 16 18 42 83 58 148 14 51 18 53
174 53 96 0 124 -3 134 -15 9 -11 32 -15 84 -15 l71 0 25 50 c23 48 23 53 10
98 -8 27 -17 113 -20 207 l-5 160 -81 131 -80 131 28 34 c35 41 53 101 39 128
-13 24 -72 33 -169 25 -69 -6 -95 -2 -242 34 -318 79 -1136 262 -1497 337 -93
19 -193 41 -223 49 -169 47 -737 77 -1055 56z m797 -150 c238 -30 687 -125
712 -150 6 -6 -2 -13 -20 -20 -16 -6 -31 -15 -34 -19 -13 -19 -208 -122 -315
-166 -107 -44 -198 -65 -355 -84 -295 -34 -369 -42 -510 -56 -553 -53 -901
-70 -1160 -56 -118 6 -230 11 -248 11 -18 0 -31 4 -27 9 8 14 246 161 380 235
262 145 446 223 654 276 133 34 180 37 483 39 232 1 316 -3 440 -19z m2278
-509 c0 -5 11 -12 24 -15 19 -5 26 -16 34 -53 6 -27 10 -70 9 -98 -2 -49 -3
-50 -37 -55 -19 -3 -50 -13 -69 -23 -26 -14 -44 -17 -82 -12 -44 6 -48 9 -44
28 3 12 12 52 19 88 13 65 36 112 66 136 17 14 80 17 80 4z m-6562 -179 c9 -6
-1 -14 -30 -27 -24 -9 -153 -71 -288 -136 -135 -65 -292 -134 -350 -154 -58
-21 -132 -48 -165 -62 -139 -59 -141 -60 65 79 164 111 227 143 405 207 61 21
148 53 195 69 85 31 144 39 168 24z m1916 -75 c25 -18 13 -74 -25 -121 l-30
-36 -29 22 c-43 32 -69 129 -37 141 25 11 104 7 121 -6z"/>
<path d="M4478 2226 c-26 -7 -65 -25 -87 -39 -22 -15 -44 -27 -48 -27 -5 0
-19 -10 -33 -21 -18 -15 -20 -19 -6 -15 14 5 17 3 11 -11 -24 -58 -28 -73 -22
-79 12 -12 203 34 279 67 40 17 85 32 100 31 32 -1 36 14 13 57 -25 49 -108
64 -207 37z"/>
</g>

<g id="product-windows" transform="translate(0.000000,305.000000) scale(0.100000,-0.100000)"
fill="#000000" stroke="none">
<path d="M4525 2491 c-148 -60 -327 -134 -397 -165 -187 -83 -550 -264 -571
-285 -17 -17 -15 -51 4 -51 5 0 9 -6 9 -14 0 -9 23 -15 83 -19 187 -15 176
-18 337 85 277 175 628 361 813 429 97 36 99 37 90 54 -9 15 -83 75 -92 74 -3
0 -127 -49 -276 -108z"/>
<path d="M5180 2475 c-186 -30 -376 -91 -535 -169 l-150 -74 74 -1 c68 -1 76
-3 102 -31 26 -27 29 -37 29 -95 0 -74 -20 -104 -67 -106 -16 0 -36 -4 -46 -7
-16 -7 -14 -11 13 -37 l30 -29 193 13 c526 34 1189 104 1334 142 121 30 450
185 460 216 7 20 -436 132 -650 164 -174 27 -656 36 -787 14z"/>
</g>
</svg>
