<svg version="1.0" xmlns="http://www.w3.org/2000/svg"
 width="710.000000pt" height="183.000000pt" viewBox="0 0 710.000000 183.000000"
 preserveAspectRatio="xMidYMid meet">

<g id="product-shape" transform="translate(0.000000,183.000000) scale(0.100000,-0.100000)"
fill="#000000" stroke="none">
<path d="M3450 1810 c-352 -19 -511 -49 -925 -175 -139 -42 -574 -187 -720
-240 -108 -39 -239 -68 -267 -59 -10 3 -43 0 -75 -6 -32 -7 -87 -15 -123 -20
-36 -4 -101 -17 -145 -30 -44 -12 -93 -24 -110 -27 -16 -2 -39 -8 -50 -12 -11
-5 -81 -28 -155 -52 -170 -54 -363 -128 -335 -129 9 0 114 24 160 36 11 3 -32
-20 -95 -51 -63 -31 -117 -60 -120 -64 -3 -5 -15 -12 -28 -16 -13 -4 -53 -27
-90 -53 -42 -28 -83 -48 -110 -52 -48 -8 -52 -1 -17 31 13 13 25 27 25 32 0
14 -38 7 -63 -13 -14 -11 -30 -20 -36 -20 -6 0 -11 -4 -11 -10 0 -5 -7 -10
-15 -10 -8 0 -15 -4 -15 -10 0 -5 -6 -10 -13 -10 -15 0 -94 -84 -109 -116 -8
-18 0 -35 47 -105 32 -46 65 -93 75 -103 18 -18 18 -20 -7 -57 -14 -21 -40
-47 -59 -58 -27 -16 -34 -27 -34 -50 0 -18 -7 -34 -17 -40 -17 -10 -17 -12 0
-25 9 -7 44 -19 77 -26 33 -7 60 -17 60 -22 0 -6 6 -8 13 -5 8 3 130 -1 273
-9 142 -8 318 -17 390 -20 l131 -7 6 24 c10 35 9 39 -7 39 -10 0 -17 16 -22
45 -3 25 -10 48 -15 51 -14 9 -10 204 6 299 9 48 13 90 11 93 -3 2 -47 -1 -98
-7 -88 -10 -118 -5 -104 17 3 5 55 15 115 22 l109 12 31 47 c31 48 108 131
121 131 4 0 20 11 36 25 48 42 165 93 253 110 118 24 194 17 316 -31 91 -35
107 -45 176 -114 70 -69 78 -82 107 -165 39 -110 82 -299 82 -356 0 -23 -4
-56 -10 -73 -5 -17 -18 -60 -30 -95 -11 -36 -18 -66 -17 -68 6 -5 3260 -4
3265 2 3 3 0 15 -6 28 -23 44 -78 223 -81 262 -3 48 15 166 27 174 4 3 9 17 9
30 3 33 41 125 80 191 18 30 37 66 43 80 14 32 90 90 160 123 162 75 165 75
318 84 87 5 278 -19 296 -37 6 -6 18 -10 27 -10 10 0 40 -18 68 -40 54 -43 62
-46 89 -30 9 6 54 21 100 34 62 18 82 21 82 11 0 -8 -10 -17 -22 -20 -78 -22
-168 -60 -168 -70 0 -7 20 -51 45 -99 25 -49 45 -94 45 -101 0 -7 10 -34 21
-60 19 -43 21 -60 16 -164 -3 -64 -9 -128 -13 -143 -5 -22 -3 -28 10 -28 18 0
66 31 103 67 33 31 60 36 132 23 111 -20 169 2 282 104 101 92 134 132 143
173 7 29 5 34 -21 45 -15 7 -35 19 -43 27 -39 37 -160 58 -160 27 0 -8 -10
-17 -22 -21 -13 -3 -33 -11 -46 -18 -18 -8 -28 -8 -42 1 -11 7 -27 12 -35 12
-8 0 -15 2 -15 5 0 17 44 162 51 170 5 5 9 20 9 35 0 47 12 54 83 47 53 -5 66
-3 71 9 3 9 6 17 6 19 0 2 -30 5 -67 7 l-68 3 3 30 c8 67 27 89 101 113 38 12
78 22 88 22 19 0 43 17 43 31 0 3 -37 14 -82 23 -46 10 -121 27 -168 38 -47
11 -114 24 -150 29 -36 5 -90 13 -120 18 -30 5 -83 14 -117 19 -34 6 -67 14
-74 17 -6 4 -54 14 -107 22 -54 7 -119 18 -147 22 -27 5 -108 19 -180 30 -71
12 -152 26 -180 32 -65 13 -92 17 -195 30 -47 5 -119 17 -160 25 -41 8 -145
23 -230 35 -85 11 -180 24 -210 29 -160 23 -301 40 -445 50 -88 6 -170 16
-182 20 -29 12 -664 19 -833 10z m520 -105 c91 -8 194 -21 230 -30 78 -17 132
-19 147 -4 7 7 43 10 100 7 77 -3 105 -11 228 -57 169 -65 215 -87 215 -105 0
-20 -15 -24 -177 -41 -355 -37 -530 -58 -708 -86 -104 -16 -230 -33 -280 -39
-87 -11 -126 -16 -420 -59 -207 -29 -446 -60 -565 -71 -58 -6 -130 -13 -160
-16 -52 -6 -57 -4 -85 26 -30 32 -30 32 -9 48 11 9 31 24 45 33 22 15 24 24
28 103 l3 86 -62 0 c-36 0 -77 -7 -98 -16 -96 -43 -127 -58 -132 -63 -3 -3
-14 -11 -25 -17 -11 -6 -21 -17 -23 -25 -1 -8 31 -50 73 -94 41 -44 73 -84 71
-90 -6 -20 -243 11 -391 50 -49 13 -107 27 -128 31 -21 4 -35 10 -30 15 18 18
478 199 505 199 10 0 18 4 18 8 0 5 26 15 58 22 31 7 62 16 67 20 11 8 14 9
155 46 161 42 451 96 610 113 47 6 154 10 239 10 85 1 157 3 159 6 10 9 176 4
342 -10z m815 -522 c39 -9 72 -18 74 -20 7 -4 -21 -63 -30 -63 -5 0 -9 -7 -9
-15 0 -8 -4 -15 -10 -15 -5 0 -10 -7 -10 -15 0 -8 -4 -15 -10 -15 -5 0 -10 -7
-10 -15 0 -8 -4 -15 -10 -15 -5 0 -10 -7 -10 -15 0 -8 -4 -15 -10 -15 -5 0
-10 -7 -10 -15 0 -8 -4 -15 -10 -15 -5 0 -10 -7 -10 -15 0 -8 -4 -15 -10 -15
-5 0 -10 -6 -10 -14 0 -8 -3 -16 -7 -18 -5 -2 -27 -28 -50 -59 -23 -31 -47
-62 -55 -70 -7 -8 -26 -32 -43 -54 -57 -76 -54 -75 -205 -109 l-65 -15 35 29
c19 16 40 30 46 30 13 0 64 56 64 70 0 5 5 10 10 10 6 0 18 17 28 38 9 20 23
43 30 50 6 7 12 20 12 28 0 8 5 14 10 14 6 0 10 5 10 11 0 6 6 17 13 24 26 30
37 44 37 50 0 3 27 48 60 101 33 52 60 101 60 108 0 7 -10 26 -22 41 l-21 27
34 -6 c19 -4 66 -14 104 -23z m-4539 -516 c15 -31 98 -186 120 -223 l18 -31
-29 -27 c-26 -25 -33 -26 -89 -20 -86 9 -90 15 -68 101 16 64 16 76 4 122 -14
47 -17 51 -45 51 -25 0 -28 3 -19 13 13 12 67 35 87 36 6 1 15 -9 21 -22z"/>
</g>

<g id="product-windows" transform="translate(0.000000,183.000000) scale(0.100000,-0.100000)"
fill="#000000" stroke="none">
<path d="M3450 1690 c-183 -13 -317 -28 -480 -56 -163 -27 -492 -114 -497
-131 -3 -7 11 -13 34 -15 l38 -3 3 -58 c4 -71 -11 -98 -68 -127 -22 -11 -40
-24 -40 -28 0 -4 18 -25 39 -46 l40 -39 78 7 c43 4 222 27 398 51 176 25 410
56 520 70 110 14 239 32 287 40 48 9 113 18 145 21 32 3 155 16 273 30 118 13
217 24 220 24 3 0 11 4 19 9 20 13 -77 153 -121 174 -35 16 -203 51 -304 62
l-62 7 -10 -74 -11 -73 4 78 3 77 -102 0 c-57 0 -143 2 -192 4 -49 3 -145 1
-214 -4z"/>
<path d="M2250 1434 c-207 -80 -390 -158 -390 -165 0 -8 164 -48 302 -74 47
-9 121 -15 165 -13 l78 3 -60 65 c-33 36 -72 79 -88 96 l-29 32 71 42 c66 39
94 61 74 59 -4 0 -60 -21 -123 -45z"/>
</g>
</svg>