<svg version="1.0" xmlns="http://www.w3.org/2000/svg"
 width="712.000000pt" height="211.000000pt" viewBox="0 0 712.000000 211.000000"
 preserveAspectRatio="xMidYMid meet">

<g id="product-shape" transform="translate(0.000000,211.000000) scale(0.100000,-0.100000)"
fill="#000000" stroke="none">
<path d="M3900 2100 c-188 -15 -498 -80 -537 -112 -7 -6 -13 -18 -13 -28 0
-11 -14 -21 -42 -29 -84 -25 -265 -104 -378 -164 -63 -34 -119 -63 -125 -65
-5 -2 -73 -34 -150 -72 -255 -125 -274 -131 -415 -140 -82 -5 -131 -5 -144 2
-38 20 -323 -6 -671 -62 -99 -16 -209 -31 -245 -35 -257 -25 -455 -95 -784
-279 -65 -36 -120 -66 -124 -66 -17 0 -252 -169 -261 -188 -18 -37 -8 -273 14
-341 2 -9 28 -25 57 -35 l52 -18 28 31 c15 17 28 40 28 51 0 11 4 28 10 38 5
9 20 44 32 76 19 50 28 61 53 68 17 5 41 6 54 3 20 -5 22 -10 17 -35 -5 -30
-28 -85 -68 -167 -12 -23 -40 -60 -63 -83 -34 -33 -52 -43 -87 -47 -35 -4 -47
-1 -62 16 l-18 20 -24 -35 c-22 -31 -23 -38 -12 -62 17 -34 54 -47 228 -77 74
-13 126 -24 115 -25 -14 -2 -11 -4 10 -9 17 -4 35 -5 40 -2 6 3 52 4 103 2 91
-3 93 -2 83 17 -34 64 -44 121 -45 262 -1 118 3 155 18 200 63 184 194 319
375 384 65 23 86 26 214 26 165 0 231 -18 329 -87 79 -56 218 -210 218 -243 0
-7 6 -26 14 -43 35 -79 39 -107 43 -287 2 -102 3 -191 3 -198 0 -7 4 -11 8 -8
12 7 1669 21 2525 21 776 -1 777 -1 777 20 1 11 1 90 0 175 -1 167 11 245 49
315 11 22 21 44 21 49 0 4 20 39 45 77 51 75 181 190 255 225 110 51 149 59
284 58 70 -1 138 -6 150 -12 11 -6 60 -28 107 -50 69 -31 104 -56 169 -118
136 -129 175 -240 175 -496 l0 -147 75 5 c73 5 258 26 410 45 41 5 92 11 113
14 22 2 45 12 52 22 7 10 28 64 45 120 26 83 30 106 20 118 -16 19 -5 61 24
96 26 30 50 148 44 214 -3 37 -7 42 -52 65 -35 18 -52 34 -57 52 -4 17 -3 29
4 33 7 3 -3 3 -20 0 -32 -4 -168 37 -238 72 -32 17 -115 93 -115 106 0 15 64
33 218 63 l153 29 -8 25 c-4 14 -6 46 -5 73 l3 47 -77 0 c-42 0 -103 -7 -137
-16 -58 -15 -65 -14 -191 11 -72 15 -171 40 -221 55 -104 32 -190 45 -200 30
-3 -5 -18 -10 -33 -10 -27 0 -128 34 -147 50 -5 5 -56 27 -113 49 -56 22 -110
45 -120 51 -19 11 -132 56 -177 71 -16 6 -39 14 -50 19 -11 5 -69 25 -130 46
-60 20 -113 42 -117 49 -4 7 -20 17 -35 23 -24 10 -170 42 -189 42 -3 0 -3 16
0 35 8 42 -7 46 -49 14 -25 -21 -34 -22 -143 -15 -65 3 -162 11 -217 16 -139
14 -628 20 -755 10z m435 -131 c72 -6 162 -12 200 -14 39 -1 97 -8 129 -14 33
-7 105 -18 160 -26 56 -8 110 -17 121 -19 11 -3 43 -9 71 -14 60 -10 164 -67
165 -90 4 -53 -27 -103 -107 -175 -76 -68 -108 -75 -409 -92 -60 -3 -171 -10
-245 -16 -198 -14 -262 -18 -395 -24 -66 -3 -133 -8 -150 -11 -16 -4 -75 -8
-130 -10 -55 -2 -116 -5 -135 -8 -31 -5 -253 -18 -515 -31 -284 -14 -327 -18
-332 -32 -4 -10 -36 -13 -140 -13 -87 0 -132 4 -128 10 10 17 240 160 257 160
2 0 2 -16 0 -35 -3 -25 1 -42 13 -55 16 -18 32 -20 126 -20 122 0 138 7 141
68 4 81 -2 107 -30 130 l-27 23 30 24 c17 14 34 25 39 25 7 0 139 57 303 131
73 33 247 89 275 89 15 0 39 5 54 10 27 10 41 13 174 29 96 12 337 12 485 0z
m-3669 -831 c4 -6 0 -16 -8 -22 -35 -26 -82 -63 -107 -83 -14 -13 -32 -27 -38
-33 -65 -54 -103 -70 -208 -85 -153 -21 -155 -21 -152 15 1 16 7 30 13 30 5 0
26 12 45 26 19 14 90 52 159 86 69 33 132 64 140 68 23 13 148 12 156 -2z
m6348 -404 c14 -5 13 -9 -4 -31 -11 -14 -20 -32 -20 -39 0 -15 -25 -65 -50
-100 -13 -17 -29 -22 -100 -27 -105 -7 -119 -1 -89 39 45 60 123 124 173 143
56 22 67 24 90 15z"/>
</g>

<g id="product-windows" transform="translate(0.000000,211.000000) scale(0.100000,-0.100000)"
fill="#000000" stroke="none">
<path d="M3865 1970 c-118 -10 -326 -59 -450 -105 -105 -40 -387 -169 -426
-196 l-24 -17 28 -29 c24 -26 27 -37 27 -95 0 -46 -4 -69 -15 -78 -8 -7 -15
-15 -15 -19 0 -9 150 -3 540 24 414 29 768 51 1035 65 286 15 368 27 447 67
51 25 79 47 113 91 41 51 45 62 43 102 -3 40 -7 47 -38 62 -84 40 -421 97
-765 128 -123 11 -364 11 -500 0z"/>
</g>
</svg>
