<svg version="1.0" xmlns="http://www.w3.org/2000/svg"
 width="768.000000pt" height="432.000000pt" viewBox="0 0 768.000000 432.000000"
 preserveAspectRatio="xMidYMid meet">

<g id="product-shape" transform="translate(0.000000,432.000000) scale(0.100000,-0.100000)"
fill="#000000" stroke="none">
<path d="M3100 2779 c-267 -18 -588 -62 -884 -120 -155 -31 -176 -39 -176 -69
0 -10 -10 -20 -22 -23 -135 -29 -884 -273 -953 -310 -11 -6 -51 -14 -90 -18
-38 -3 -124 -20 -190 -37 -67 -17 -157 -38 -202 -45 -44 -8 -86 -17 -92 -21
-17 -11 -13 -67 5 -87 15 -17 12 -22 -42 -80 -66 -68 -67 -74 -50 -224 8 -68
7 -71 -23 -112 -17 -24 -31 -50 -31 -59 0 -9 17 -35 38 -59 20 -23 66 -90 102
-149 57 -92 70 -107 100 -115 78 -21 314 -51 403 -51 l95 0 11 31 c6 18 11 46
11 63 0 47 37 170 71 239 108 214 401 355 640 308 79 -16 209 -72 271 -117 82
-60 167 -187 205 -303 8 -25 17 -102 20 -171 3 -69 9 -130 14 -136 14 -18 586
-32 2056 -53 529 -7 563 -9 590 -27 25 -17 51 -19 260 -22 170 -2 233 0 239 9
4 6 8 91 9 188 2 222 17 286 95 390 28 39 73 90 100 114 66 59 182 116 267
129 92 14 243 4 323 -21 48 -15 96 -21 180 -23 68 -1 88 -3 50 -5 -123 -6
-136 -19 -71 -69 47 -36 113 -114 134 -158 77 -158 72 -134 72 -334 l0 -183
23 -6 c25 -6 480 15 493 23 4 2 15 26 25 52 10 26 35 72 55 103 31 46 51 63
106 91 l68 34 3 80 c3 78 2 81 -32 126 -33 43 -90 86 -183 139 -36 20 -46 22
-62 12 -15 -10 -43 -10 -118 -2 -195 20 -181 15 -225 94 -21 39 -38 73 -38 78
0 4 18 7 39 7 109 0 78 31 -94 94 -309 114 -601 166 -936 166 -85 0 -140 5
-168 15 -33 11 -65 12 -173 4 -73 -5 -181 -12 -239 -15 l-106 -7 -79 55 c-100
70 -513 331 -618 391 l-79 45 34 17 33 18 -22 17 c-36 29 -344 82 -587 100
-160 11 -472 11 -655 -1z m701 -149 c118 -12 167 -21 292 -57 115 -32 191 -67
365 -166 l143 -81 -48 -11 c-61 -14 -109 -40 -123 -64 -5 -11 -10 -40 -10 -65
l0 -46 -55 0 c-30 0 -66 -5 -80 -12 -19 -9 -86 -8 -293 5 -147 9 -348 18 -447
21 -132 3 -189 8 -215 19 -26 12 -119 20 -365 32 -639 31 -1003 68 -1041 107
-13 13 -8 19 43 51 79 48 135 69 326 122 255 70 319 83 522 111 274 38 774 55
986 34z"/>
</g>

<g id="product-windows" transform="translate(0.000000,432.000000) scale(0.100000,-0.100000)"
fill="#000000" stroke="none">
<path d="M4278 2655 c-16 -9 -28 -19 -28 -24 0 -16 49 -51 180 -126 131 -75
485 -300 584 -370 54 -39 63 -40 219 -25 141 14 145 19 60 73 -39 25 -95 58
-125 73 -29 14 -127 67 -217 117 -90 50 -219 115 -285 144 -67 30 -161 74
-211 98 -107 53 -140 60 -177 40z"/>
<path d="M3370 2621 c0 -8 186 -471 192 -476 6 -6 383 -25 636 -31 l262 -7 0
65 c0 64 0 64 36 82 20 9 65 20 100 23 35 3 64 9 64 12 0 3 -84 51 -188 107
-175 94 -299 145 -477 194 -98 27 -625 53 -625 31z"/>
<path d="M3040 2614 c-14 -2 -83 -11 -155 -20 -270 -32 -617 -111 -785 -177
-159 -63 -180 -79 -158 -123 18 -38 66 -49 323 -74 230 -22 838 -60 966 -60
l80 0 -6 33 c-10 57 -65 412 -65 420 0 7 -151 8 -200 1z"/>
<path d="M1980 2584 c-35 -13 -98 -33 -140 -44 -160 -41 -595 -196 -915 -325
-16 -7 -13 -9 22 -16 38 -7 63 -1 220 55 282 100 715 241 851 276 39 10 42 13
42 45 0 19 -3 35 -7 35 -5 -1 -37 -12 -73 -26z"/>
</g>
</svg>