<svg xmlns="http://www.w3.org/2000/svg" viewBox="0 0 2768 1090">
    <path id="product-shape"
        d="M2525.45 523.21s-3.32-15.57-6.64-88.85l-30.47-.51-19.83-2s-10.91-2.81-14.87-9.7c0 0-1-1.15-.58-7.15l16.56-21.79 31.7-45-.26-17-2.49-3.4-1.08-1.45-1.79-1.66-2.55-1.4-1.53-1.15-2.3-1.28-75.83-52.59s-27.7-25.15-116.17-74.3c0 0-69.58-39.19-142.85-67.53 0 0-92.17-34.22-222.9-54.13 0 0-89.36-16.51-203.4-15.49h-42.89L1626 60.57l-15.41-.11-11.7 2.54-13.4 2.43s-53.75 5.36-145.66 36.76c0 0-74.55 26.81-174.64 90.13 0 0-65.36 41.87-123.57 83.49 0 0-27.07 19.4-50 28.34s-54.12 13-54.12 13l-34.6-1.15-101.74 1.41s-70.64 1.36-130.56 3.06c0 0-54.81 2.72-69.1 3.83l-3.71.25-.63-.25s98.8-67.66 187.15-110.3c0 0 38.3-22.12 147.75-63.41-25.08 8.95-69 25.47-112.35 45.79 0 0-59.92 24.51-243.4 128.34l-5.45 3.07-41.36 9.53-33.88 7-47.48 10-63.83 13.11L430 379.38s-80.68 20.09-87.83 23.32l-24.34 7.83-20.47 7.47-26.55 9.87s-54 22.13-78 38.13c0 0-60.08 34-73 53.62l-1.81 3.93 2-.72 1.34-1 1-1.09 2.17-1.21 1.14-.51 2.69-.64 1.85.13s1.4-.13 1.72-.19 3.83-.45 3.83-.45l1.34.06 1.6-.7 1.85-1.08 1.59-.19 3.58-.77h54s15.66.76 25.53 2.3c0 0 10.38 1.53 19.24 3.23s10.53 1.13 26.53 7.09a133.22 133.22 0 0128.42 15s54.81-30.81 93.88-46.9l24.51-8.68 7.91-2.55 13.53-3.57 13.54-3.32 15.06-3.32 7.15-1.79 11.49-2.55 16.34-2.81s17.62-4.34 114.13-17.62l14.55-.25 3.57-.77 8.17-1 3.83-.77s99.58-1.27 112.09 2.3l1.11.26-16.6 17.27-42.89 37.62-24.09 15s-14.38 9.36-41.79 12.25l-39.32 4.34-76.85 6.22-19.74 1.64-23.77 1.19-23.32 1.11-29.78.68-5.11-.68-6.64-2.05-21.61-10.8-24.09-15.32-2.13-3.07a430.24 430.24 0 00-61.36 33.28h-2l-.68-1-106.81 2.3-4.51 1.19s-2.55 1.7-2.55 2.12-2 2.47-2 2.47l-.68.94-.51 1.19-1.19 1s-.26 1.87-.26 2.13-1 2.64-1 2.64l-1.79 4-.42 2.21.08 2.21v2.22l-.08 1.7-1 1.62-.85 2.38-.85 1.7-.25 1.36-.43.51-15.91-30.47-1.71-2.29-1.79-1.45-2.3-1.36-4.7-1.11-5-1.36-4.59-.51-3.92-.85-3.49-.77-2.38-.17-.94.17-2.21-11.4-1.28-.26-.76 1.53-.94.6-.76-.43-.51-1.78.42-2 .17-2.05-1.28.26-1.1.68-1.62 3.4-2.13 2.13-.51.94-.17.51v27l5.36 48.66 2.64 17.83s2 6 0 15.66l-6.72 15.66-4.34 12-1.79 12.25-1 4.77.51 31s3.49 39.06 9.79 61.19l.55.55 4.85-3.61 1.92-.9a339 339 0 0136.7-7.06l-.38-6.13-1.79-7.4-.9-7.92-.12-3.19s49.91 6.64 160.08 15.57l46.09 55.66.51.77s74 2.38 184 4.09l128.34-3.07.68-.51 1.11-1.11.76-18s4.94-39.91 6.81-46 14-65.36 27.74-94 41.37-77.61 70-100.93 18.9-26.73 91.75-60.26c0 0 37.44-18.89 93.95-15.83s85.54 19.75 106.94 31 37.06 25.11 56.72 47.32 32.17 42.38 46.22 70.47 13.78 37.78 22.21 80.68c0 0 4.08 46.72 1.79 78.38l12.35-1.6L1307 782l139.23-8.34 156.26-10.08 148.08-9.07s69.71-6.3 332.68-24.34c0 0 11.75-93.87 34.73-135.49s21.7-52.08 82.47-102.38a147 147 0 0126.8-13.79 163.63 163.63 0 0123.49-7.15l10.22-1.78 8.42-.77 12 .26 11.75.51s11.23 1 17.1 3.06 55.92 13.79 92.17 64.6 43.41 116.93 45.45 150.89v.94s48.51-12.26 75.15-22c0 0 8.59-22.13 9.36-64.77-.02.06 2.02-30.58-6.91-79.09zM564.6 749.6c-8.34 24.85-23 31-23 31-6.81 6.81-42.64 5.24-42.64 5.24v-22l1-18.08 1.7-6.56v-2.3l.94-8.93.36-9.53v-11.21c0-.32 1 0 1 0l1-1c2-25.19 4.51-34.73 4.51-34.73l.68-1.19 2.9-.68 16.48-2.63c2-1 41.36-3.57 41.36-3.57h17c-2.19 16.57-14.95 61.31-23.29 86.17zm620.51-304.09l-.47.21c-11.36 8.94-44.94 29.11-44.94 29.11a51.81 51.81 0 01-5.74.26c-3.64 0-19-16.13-25.87-24.39v-2.13a4 4 0 013.14-2.29c2.39-.34 39.15-1.71 39.15-1.71l25.71-1.53 7.65-.42s3.32.17 1.37 2.89zM1871.83 377c-5.66 9-10.89 11.53-11.92 12.56a7.89 7.89 0 01-3.06 1.53l-170.89 9h-1a6.54 6.54 0 010-4.17l10-10.81 5-3.23 6.04-.88 166-8zm455.87-114.34c-13 20-32.68 23.87-32.68 23.87-29.36 8.17-65.49 11.36-65.49 11.36-50.68 7.66-103.27 13-103.27 13l-88.47 8.3-55.53 4.47-59.88 3.45-47.15 3.57-103.4 6.3-101.53 6-97.11 4.68-92.19 3.72-15.4.51-35.75 1-38 1.41-79.4 2.68-41.62 1.79-54.83 2.57-3.49.51c-38.43 3.45-98.81 5-98.81 5l-.35-.06v-.21l.13-.46.52-.58 2.13-3.16c37.27-43.15 72-71 72-71 9.7-9.95 107.48-91.91 187.4-129.95s116.9-53.62 180.73-66.43 110.12-15 110.12-15c47.66-3.75 96.51-1.7 96.51-1.7 41.54 1 43.75 1.19 76.43 3.74s73.62 9.19 112.17 14.81 107 22.85 107 22.85l63.06 17.87 39.3 13.43 15.58 5.87c61 19.4 132.51 63.57 132.51 63.57l27.32 18c-2.69 16.18-8.56 24.22-8.56 24.22zm-880.47 64.55h-.93s-26.9.15-27.28 0-41.36 1.32-41.36 1.32l-24.26 1.15-20.17 1.53-16.72 1.79-23.11 1.66-16 1.53-11.62 1s-4 1.07-3.4-3 15.87-30 15.87-30a87.55 87.55 0 0129.79-30 134.67 134.67 0 0126.55-7.92s23.49-2.55 45 1.45c0 0 36.34 5.62 50 12.76s17.64 46.73 17.64 46.73z" />
</svg>